<?xml version="1.0" standalone="no"?><!DOCTYPE svg PUBLIC "-//W3C//DTD SVG 1.1//EN" "http://www.w3.org/Graphics/SVG/1.1/DTD/svg11.dtd"><svg t="1775904901767" class="icon" viewBox="0 0 1024 1024" version="1.1" xmlns="http://www.w3.org/2000/svg" p-id="5699" xmlns:xlink="http://www.w3.org/1999/xlink" width="200" height="200"><path d="M443.52 290.24h-103.04V736h352l-36.16-106.56 29.44-12.48a162.56 162.56 0 0 0 96-87.04H443.52z" fill="#1296db" p-id="5700"></path><path d="M512 3.52a510.08 510.08 0 1 0 509.76 510.08A510.08 510.08 0 0 0 512 3.52z m186.56 645.76l35.2 104.64a13.76 13.76 0 0 1-4.48 12.16 21.12 21.12 0 0 1-14.72 4.8H325.44a21.12 21.12 0 0 1-14.72-4.8 12.8 12.8 0 0 1-4.48-12.16v-99.2a6.08 6.08 0 0 1 0-2.56V272.96a15.04 15.04 0 0 1 17.28-16.96h137.28a15.04 15.04 0 0 1 17.28 16.96v224h343.36c0 66.24-49.6 121.92-122.88 152.32z m105.6-187.2h-274.56a17.28 17.28 0 0 1 0-34.56h274.56a17.28 17.28 0 1 1 0 34.56z" fill="#1296db" p-id="5701"></path></svg>